<svg width="340" height="354" viewBox="0 0 340 354" fill="none" xmlns="http://www.w3.org/2000/svg">
<path d="M331.811 199.943C331.721 202.455 331.608 204.993 331.468 207.557C330.962 216.944 329.717 226.261 327.718 235.4C324.796 248.749 320.261 261.719 314.083 273.972C283.726 334.179 227.994 353.63 183.09 350.749C165.027 349.598 148.716 344.831 136.51 337.647L123.753 323.469L198.01 289.631H221.765C221.765 289.631 221.784 289.619 221.791 289.613C239.145 278.34 251.7 263.471 260.13 246.61C264.962 236.957 268.446 226.653 270.711 216.001C275.689 192.638 274.822 167.592 269.497 144.041C268.921 141.503 268.301 138.983 267.625 136.483C266.012 130.514 264.115 124.665 261.952 118.995C261.775 118.519 261.592 118.045 261.408 117.577C242.535 69.2259 204.6 34.0652 162.385 46.0783C161.873 46.2241 161.367 46.3754 160.854 46.5339L131.553 82.9481L60.4966 92.2335V69.0293C119.731 -6.61606 237.999 -26.9963 296.963 54.1611C297.052 54.2743 297.134 54.396 297.216 54.5162C304.628 64.7764 311.086 76.6508 316.367 90.2273C316.626 90.8852 316.879 91.5501 317.127 92.2208C317.158 92.3028 317.19 92.3849 317.216 92.4669C317.341 92.7895 317.462 93.1192 317.583 93.4474C320.183 100.504 322.472 108.011 324.414 115.974C330.233 139.772 332.971 167.648 331.813 199.941L331.811 199.943Z" fill="white"/>
<path d="M191.786 351.343C188.677 351.343 185.762 351.239 183.068 351.066C165.432 349.943 148.84 345.274 136.348 337.921L136.273 337.86L123.228 323.361L198.008 289.317H221.667C238.152 278.59 250.99 264.18 259.845 246.47C264.533 237.105 268.082 226.832 270.399 215.935C275.169 193.55 274.749 168.713 269.187 144.11C268.593 141.493 267.964 138.954 267.318 136.566C265.713 130.628 263.809 124.756 261.654 119.108C261.478 118.634 261.294 118.16 261.112 117.693C251.496 93.0583 237.058 72.371 220.454 59.4411C202.268 45.2789 182.218 40.7643 162.469 46.3839C161.99 46.5197 161.516 46.6612 161.038 46.8097L131.719 83.2466L131.593 83.2636L60.1792 92.5956V68.9217L60.2471 68.8354C93.3569 26.5512 145.399 0.869663 196.119 1.76665C237.394 2.51084 273.298 21.0518 297.217 53.9743C297.303 54.0847 297.389 54.2106 297.476 54.3351C305.049 64.8188 311.505 76.8573 316.661 90.1112C316.921 90.7705 317.174 91.4383 317.421 92.1103C317.454 92.1952 317.488 92.2844 317.516 92.3749C317.633 92.6734 317.754 93.0002 317.874 93.3285C320.509 100.482 322.81 108.072 324.719 115.899C330.75 140.567 333.242 168.846 332.128 199.954C332.04 202.451 331.924 205.014 331.786 207.574C331.277 217.006 330.013 226.392 328.028 235.468C325.064 249.015 320.466 262.017 314.366 274.115C300.275 302.06 280.028 322.984 254.187 336.3C230.932 348.285 208.561 351.343 191.789 351.343H191.786ZM136.71 337.4C149.114 344.69 165.588 349.317 183.109 350.435C185.806 350.608 188.564 350.697 191.36 350.697C233.255 350.7 285.11 330.731 313.8 273.831C319.876 261.779 324.454 248.828 327.409 235.334C329.387 226.29 330.646 216.94 331.152 207.54C331.291 204.985 331.405 202.424 331.493 199.932C332.606 168.885 330.119 140.662 324.102 116.05C322.2 108.246 319.905 100.678 317.283 93.5577C317.16 93.2224 317.043 92.8998 316.918 92.5829C316.887 92.4853 316.857 92.4089 316.829 92.3339C316.582 91.6604 316.33 90.9983 316.071 90.3418C310.935 77.1375 304.505 65.1456 296.958 54.7001C296.875 54.5784 296.797 54.4638 296.712 54.3549C272.906 21.588 237.179 3.14042 196.108 2.39907C145.649 1.48935 93.805 27.0591 60.8097 69.1382V91.8727L131.384 82.651L160.667 46.2608L160.758 46.2311C161.273 46.0726 161.781 45.9198 162.295 45.7727C182.248 40.0965 202.49 44.6493 220.841 58.9403C237.533 71.9395 252.044 92.7215 261.7 117.461C261.883 117.93 262.069 118.406 262.245 118.883C264.407 124.548 266.318 130.442 267.927 136.399C268.576 138.796 269.208 141.344 269.803 143.97C275.385 168.663 275.805 193.593 271.017 216.067C268.69 227.016 265.121 237.34 260.41 246.751C251.496 264.582 238.566 279.087 221.979 289.866L221.861 289.978L221.765 289.948H198.078L124.277 323.579L136.712 337.4H136.71Z" fill="black"/>
<g opacity="0.6">
<path opacity="0.6" d="M67.1357 74.9346V91.3661L60.4956 92.2334V69.0292C114.874 -0.412243 219.013 -23.2811 281.335 36.2354C218.476 -15.7303 119.63 7.90398 67.1357 74.9346Z" fill="white"/>
</g>
<g opacity="0.6">
<path opacity="0.6" d="M226.905 294.842L222.845 289.614C240.199 278.341 252.754 263.473 261.184 246.611C266.016 236.958 269.501 226.654 271.765 216.002C276.743 192.639 275.876 167.593 270.551 144.042C269.976 141.504 269.355 138.984 268.679 136.484L269.116 135.118L274.498 130.326C291.865 204.679 275.794 265.1 226.906 294.843L226.905 294.842Z" fill="white"/>
</g>
<path d="M232.865 304.626L230.329 308.544C229.925 309.171 229.475 309.765 229.001 310.322H228.996C225.948 313.866 221.482 315.956 216.745 315.893C205.285 315.747 196.608 312.797 188.904 305.929C187.045 304.277 184.432 303.758 182.111 304.67L135.967 322.729C133.955 323.514 133.425 326.114 134.968 327.621L140.299 332.843C141.551 334.071 141.196 336.179 139.603 336.926L138.3 337.528L136.996 338.135C134.378 339.356 131.367 339.439 128.685 338.369C111.862 331.628 98.0803 320.426 88.012 303.792C87.8721 303.577 87.7463 303.355 87.6134 303.139L39.0251 132.274C38.7466 110.436 42.9467 89.9031 54.881 71.6239L68.0989 67.0541L67.0556 81.8204C66.8153 85.2385 70.0088 87.8644 73.3111 86.9731L130.017 71.5673C132.06 71.0169 133.742 69.5738 134.601 67.637L144.897 44.4328L156.882 41.1858L163.979 50.4711C162.246 57.3457 161.259 64.523 161.259 71.7201C161.259 83.8534 164.067 96.0632 170.872 107.007C171.903 108.665 173.022 110.298 174.244 111.893C183.749 119.818 192.281 129.806 199.263 141.433L199.269 141.439C205.512 151.825 210.526 163.522 213.898 176.226C221.588 205.177 219.312 233.813 209.439 256.655V256.667C208.521 273.808 218.091 289.037 231.467 297.885C233.706 299.366 234.32 302.378 232.865 304.626Z" fill="white"/>
<path d="M132.571 339.43C131.212 339.43 129.852 339.175 128.57 338.664C111.208 331.708 97.473 320.03 87.7426 303.955C87.6578 303.825 87.573 303.682 87.4882 303.54L87.3115 303.225L38.7076 132.319V132.277C38.4009 108.211 43.6046 88.3144 54.6144 71.4499L54.6738 71.3594L68.4473 66.5986L67.37 81.8431C67.2626 83.3683 67.8761 84.7986 69.0537 85.7678C70.2313 86.7383 71.7525 87.0666 73.2269 86.6676L129.933 71.2618C131.891 70.7341 133.487 69.3659 134.312 67.5083L144.67 44.1668L157.005 40.8251L164.323 50.4005L164.285 50.549C162.487 57.6811 161.575 64.8046 161.575 71.7202C161.575 84.817 164.794 96.6321 171.14 106.84C172.193 108.532 173.321 110.169 174.493 111.701C184.146 119.739 192.587 129.705 199.532 141.271C205.968 151.974 210.901 163.705 214.202 176.146C221.654 204.195 220.072 232.813 209.751 256.73C208.938 272.497 217.319 288.149 231.64 297.622C234.009 299.188 234.677 302.408 233.129 304.798L230.592 308.717C230.197 309.33 229.741 309.938 229.24 310.529L229.136 310.641C225.981 314.246 221.456 316.264 216.737 316.211C204.964 316.063 196.313 312.966 188.691 306.169C186.89 304.57 184.41 304.109 182.225 304.968L136.081 323.026C135.235 323.356 134.623 324.085 134.442 324.973C134.263 325.86 134.541 326.767 135.187 327.397L140.52 332.619C141.183 333.268 141.485 334.205 141.33 335.122C141.171 336.051 140.59 336.814 139.736 337.214L137.131 338.422C135.695 339.093 134.134 339.43 132.571 339.43ZM87.908 303.013L88.031 303.216C88.1116 303.351 88.1936 303.486 88.2798 303.619C97.9423 319.581 111.575 331.173 128.806 338.076C131.399 339.108 134.336 339.026 136.865 337.848L139.472 336.638C140.134 336.328 140.585 335.736 140.708 335.014C140.831 334.291 140.602 333.582 140.079 333.069L134.748 327.847C133.947 327.066 133.601 325.942 133.824 324.844C134.048 323.744 134.807 322.841 135.853 322.434L181.997 304.375C184.406 303.43 187.134 303.934 189.115 305.692C196.616 312.38 205.139 315.427 216.75 315.575C216.819 315.575 216.888 315.575 216.956 315.575C221.474 315.575 225.765 313.592 228.756 310.113L228.855 310.003C229.302 309.468 229.709 308.919 230.065 308.369L232.601 304.45C233.961 302.35 233.375 299.522 231.295 298.146C216.765 288.533 208.27 272.632 209.126 256.647L209.151 256.525C219.437 232.726 221.015 204.236 213.594 176.303C210.309 163.92 205.398 152.244 199.001 141.597C192.085 130.085 183.691 120.173 174.044 112.131C172.81 110.531 171.67 108.879 170.607 107.17C164.196 96.8598 160.946 84.9316 160.946 71.7145C160.946 64.7947 161.852 57.6697 163.638 50.5377L156.763 41.5424L145.128 44.6946L134.893 67.7616C133.991 69.7946 132.244 71.2915 130.101 71.8687L73.3952 87.2745C71.7199 87.7287 69.9924 87.3552 68.6551 86.2531C67.3177 85.1509 66.6208 83.5267 66.7424 81.795L67.7517 67.5055L55.088 71.8843C44.1955 88.6101 39.0455 108.351 39.3424 132.223L87.9109 303.008L87.908 303.013Z" fill="black"/>
<g opacity="0.6">
<path opacity="0.6" d="M93.2889 306.95C96.8938 313.007 100.986 318.362 105.533 323.046C99.1897 317.432 93.6113 310.698 88.874 302.728L40.2829 131.862C40.0044 110.025 44.2045 89.4915 56.1388 71.2123L69.3567 66.6425L68.9397 72.5351L60.5537 75.434C48.6194 93.7133 44.4193 114.246 44.6978 136.084L93.2889 306.95Z" fill="white"/>
</g>
<g opacity="0.6">
<path opacity="0.6" d="M139.16 335.983C139.16 335.983 138.825 336.59 138.301 337.528L136.997 338.135C134.379 339.356 131.368 339.439 128.686 338.37C111.863 331.628 98.0814 320.426 88.0132 303.792L97.0509 305.602C97.0509 305.602 113.602 328.811 139.16 335.983Z" fill="white"/>
</g>
<g opacity="0.6">
<path opacity="0.6" d="M156.881 42.5299L160.309 47.0177L149.31 49.9987L139.014 73.2029C138.155 75.1398 136.473 76.5829 134.43 77.1332L77.7242 92.539C74.7837 93.337 71.9239 91.3364 71.5068 88.4686C72.0893 88.5252 72.6957 88.4814 73.3093 88.3172L130.015 72.9114C132.058 72.3611 133.74 70.918 134.599 68.9811L144.895 45.7769L156.881 42.5299Z" fill="white"/>
</g>
<g opacity="0.3">
<path opacity="0.3" d="M232.864 304.627L230.328 308.544C229.924 309.171 229.474 309.765 229.001 310.323H228.995C228.545 310.259 210.117 307.538 198.656 293.574C198.656 293.574 190.649 287.301 179.474 295.606C179.474 295.606 154.789 309.671 136.328 310.101L136.676 308.328C136.707 308.322 136.745 308.31 136.778 308.302C181.745 296.34 205.804 239.987 190.517 182.446C186.141 165.976 179.02 151.19 170.019 138.759L170.196 137.867C170.196 137.867 188.277 157.228 199.264 141.43L199.269 141.436C205.512 151.822 210.527 163.52 213.898 176.223C221.589 205.174 219.313 233.81 209.439 256.652V256.665C208.522 273.805 218.091 289.034 231.467 297.882C233.707 299.364 234.32 302.376 232.866 304.624L232.864 304.627Z" fill="black"/>
</g>
<path d="M136.783 308.296C181.751 296.33 205.811 239.983 190.523 182.44C175.235 124.898 126.388 87.9514 81.4208 99.9174C36.4533 111.883 12.3933 168.231 27.6812 225.773C42.9691 283.315 91.8158 320.262 136.783 308.296Z" fill="white"/>
<path d="M119.6 310.859C79.8796 310.859 40.7347 276.175 27.3683 225.856C19.9578 197.958 21.4818 169.466 31.6603 145.631C41.8501 121.769 59.4929 105.427 81.3371 99.6146C126.402 87.6269 175.517 124.747 190.823 182.367C198.233 210.265 196.709 238.756 186.531 262.592C176.341 286.454 158.698 302.796 136.854 308.608C131.144 310.128 125.363 310.858 119.6 310.858V310.859ZM98.5981 97.9975C92.8826 97.9975 87.1614 98.7204 81.4996 100.227C59.8477 105.987 42.3534 122.201 32.2413 145.88C22.1179 169.587 20.6039 197.931 27.979 225.693C43.1959 282.976 91.9637 319.901 136.691 307.997C158.343 302.236 175.838 286.024 185.95 262.344C196.073 238.638 197.587 210.293 190.212 182.531C176.922 132.499 138.03 97.9975 98.5981 97.9975Z" fill="black"/>
<g opacity="0.3">
<path opacity="0.3" d="M136.775 308.304C123.55 311.822 109.991 311.108 97.0503 306.879C106.878 308.665 116.922 308.391 126.776 305.771C171.744 293.809 195.807 237.456 180.521 179.915C169.732 139.291 142.213 108.928 111.142 98.801C146.18 105.131 178.587 137.513 190.515 182.446C205.801 239.987 181.743 296.339 136.775 308.302V308.304Z" fill="black"/>
</g>
<g opacity="0.6">
<path opacity="0.6" d="M111.692 310.102C74.9022 305.911 40.1299 272.687 27.6711 225.774C12.3849 168.232 36.4501 111.886 81.4165 99.9243C91.7378 97.1767 102.263 97.0069 112.546 99.0754C104.204 98.1133 95.754 98.6509 87.4373 100.867C42.4709 112.836 18.4058 169.18 33.692 226.723C45.475 271.067 77.1853 303.183 111.692 310.102Z" fill="white"/>
</g>
<path d="M169.258 227.983C168.594 235.769 167.046 243.18 164.705 250.03C162.251 257.235 158.914 263.807 154.794 269.51C148.427 278.329 140.199 285.068 130.461 288.836C128.783 289.487 127.058 290.048 125.292 290.517C90.6021 299.715 52.4806 269.653 40.1515 223.364C36.9623 211.397 35.8122 199.514 36.4588 188.315C37.2114 175.242 40.4126 163.097 45.6821 152.834C48.9959 146.368 53.1338 140.653 57.9939 135.916C62.5161 131.509 67.6624 127.953 73.3652 125.445C75.7012 124.409 78.1246 123.558 80.6381 122.889C115.328 113.69 153.443 143.753 165.773 190.036C169.241 203.044 170.302 215.952 169.259 227.983H169.258Z" fill="#735CFF"/>
<path d="M115.817 296.82C82.7932 296.82 49.7908 266.567 38.2114 222.968C34.8765 210.419 33.5476 197.768 34.2615 185.367C35.0574 171.513 38.4715 158.342 44.1375 147.276C47.717 140.27 52.1573 134.153 57.3342 129.092C62.2751 124.263 67.8238 120.473 73.8262 117.826C76.32 116.718 78.9466 115.791 81.6326 115.076C118.75 105.203 159.673 137.536 172.852 187.147C176.481 200.8 177.736 214.498 176.58 227.859C175.876 236.142 174.236 244.103 171.707 251.525C169.069 259.294 165.496 266.334 161.09 272.451C154.126 282.126 145.1 289.314 134.985 293.239C133.182 293.941 131.315 294.549 129.436 295.047C124.934 296.244 120.373 296.821 115.815 296.821L115.817 296.82ZM95.2605 113.931C90.7537 113.931 86.2469 114.501 81.7952 115.685C79.1417 116.393 76.5462 117.308 74.0821 118.403C68.1475 121.021 62.661 124.77 57.7753 129.545C52.6479 134.556 48.2485 140.62 44.7002 147.565C39.0751 158.552 35.6837 171.637 34.8935 185.404C34.1838 197.738 35.5056 210.323 38.8235 222.807C51.9128 272.086 92.4883 304.219 129.276 294.436C131.133 293.944 132.976 293.342 134.757 292.649C144.756 288.768 153.685 281.656 160.578 272.081C164.948 266.014 168.492 259.029 171.11 251.321C173.622 243.949 175.251 236.037 175.952 227.806C177.101 214.516 175.853 200.892 172.243 187.31C160.738 144 127.997 113.934 95.2619 113.934L95.2605 113.931Z" fill="black"/>
<g opacity="0.3">
<path opacity="0.3" d="M139.569 131.964C124.649 122.362 107.852 118.69 91.75 122.976C54.7384 132.824 35.3992 180.96 48.5592 230.482C54.662 253.472 66.6981 272.72 81.5418 285.759C62.163 273.309 45.9481 250.864 38.5164 222.888C25.3621 173.365 44.7012 125.23 81.7129 115.381C101.547 110.108 122.43 116.901 139.569 131.964Z" fill="black"/>
</g>
<path d="M108.638 216.71C113.449 215.43 115.963 209.174 114.252 202.736C112.542 196.299 107.255 192.118 102.444 193.398C97.6334 194.678 95.1199 200.935 96.8302 207.372C98.5406 213.81 103.827 217.991 108.638 216.71Z" fill="black"/>
<path d="M136.843 226.647C136.378 226.647 135.909 226.52 135.488 226.251L102.646 205.339C102.047 204.957 101.636 204.34 101.513 203.639L90.8901 143.002C90.6484 141.624 91.5687 140.313 92.9456 140.071C94.3225 139.835 95.633 140.751 95.8748 142.128L106.303 201.666L138.205 221.979C139.384 222.729 139.731 224.296 138.981 225.474C138.499 226.232 137.68 226.647 136.845 226.647H136.843Z" fill="black"/>
<g opacity="0.3">
<path opacity="0.3" d="M143.084 223.848C142.618 223.848 142.149 223.721 141.728 223.452L108.887 202.539C108.287 202.157 107.876 201.54 107.753 200.839L97.1303 140.202C96.8886 138.824 97.8089 137.513 99.1858 137.271C100.557 137.029 101.873 137.95 102.114 139.328L112.544 198.866L144.444 219.18C145.623 219.929 145.97 221.496 145.22 222.674C144.738 223.432 143.919 223.847 143.082 223.847L143.084 223.848Z" fill="black"/>
</g>
<g opacity="0.25">
<path opacity="0.25" d="M160.835 272.264C154.042 281.701 145.263 288.911 134.872 292.943L34.5771 185.384C35.3801 171.396 38.7956 158.401 44.4178 147.419L160.833 272.263L160.835 272.264Z" fill="white"/>
</g>
<g opacity="0.25">
<path opacity="0.25" d="M176.266 227.831C175.558 236.162 173.907 244.092 171.409 251.422L57.5552 129.318C62.3801 124.603 67.8708 120.798 73.9553 118.115L176.266 227.831Z" fill="white"/>
</g>
<path d="M115.676 298.74C101.409 298.74 86.8774 293.304 73.6199 282.817C56.0902 268.952 42.8653 247.872 36.3807 223.459C29.8961 199.047 30.9154 174.176 39.2505 153.429C47.676 132.461 62.5536 118.188 81.1449 113.242C99.7363 108.294 119.733 113.289 137.45 127.302C154.98 141.167 168.205 162.248 174.69 186.66C181.174 211.073 180.155 235.943 171.82 256.69C163.394 277.659 148.517 291.932 129.925 296.878C125.246 298.123 120.475 298.738 115.676 298.738V298.74ZM95.3694 115.817C90.9545 115.817 86.5749 116.381 82.2815 117.523C65.0714 122.101 51.2484 135.44 43.3572 155.082C35.3756 174.947 34.4185 198.825 40.6585 222.32C46.8999 245.815 59.5806 266.065 76.3653 279.341C92.9619 292.468 111.579 297.175 128.789 292.596C145.999 288.018 159.822 274.679 167.713 255.038C175.695 235.172 176.652 211.295 170.412 187.799C164.17 164.305 151.49 144.055 134.705 130.778C122.249 120.926 108.654 115.817 95.3708 115.817H95.3694Z" fill="black"/>
<path d="M119.623 313.072C78.9098 313.072 38.8574 277.736 25.2281 226.426C17.6903 198.051 19.2524 169.049 29.6246 144.761C40.0887 120.258 58.2517 103.466 80.7688 97.474C127.012 85.1694 177.343 122.998 192.963 181.798C200.501 210.173 198.939 239.175 188.566 263.463C178.102 287.966 159.939 304.758 137.422 310.75C131.531 312.318 125.567 313.072 119.624 313.072H119.623ZM98.6222 100.209C93.0877 100.209 87.5489 100.909 82.068 102.368C61.0875 107.949 44.1149 123.711 34.277 146.75C24.3473 170.004 22.87 197.837 30.118 225.125C45.021 281.227 92.5745 317.441 136.122 305.856C157.102 300.275 174.075 284.512 183.913 261.474C193.842 238.22 195.32 210.387 188.072 183.101C175.045 134.059 137.062 100.21 98.6222 100.21V100.209Z" fill="black"/>
<path d="M200.995 274.637C200.504 274.637 200.009 274.496 199.574 274.199C198.419 273.412 198.119 271.837 198.905 270.681C215.774 245.873 220.463 210.807 211.45 176.88C201.994 141.278 179.296 112.607 150.734 100.183C149.453 99.6258 148.865 98.1346 149.422 96.8528C149.979 95.571 151.468 94.9824 152.75 95.5399C182.717 108.574 206.488 138.496 216.339 175.58C225.723 210.907 220.769 247.525 203.087 273.531C202.598 274.251 201.802 274.639 200.993 274.639L200.995 274.637Z" fill="black"/>
<path d="M234.317 163.999C236.578 172.507 234.891 180.339 230.55 181.495C226.208 182.649 220.85 176.692 218.591 168.184C216.333 159.684 218.027 151.85 222.368 150.695C226.71 149.54 232.061 155.499 234.318 163.999H234.317Z" fill="white"/>
<path d="M229.436 181.955C227.531 181.955 225.484 180.823 223.553 178.674C221.26 176.123 219.389 172.426 218.285 168.265C217.18 164.107 216.97 159.97 217.695 156.618C218.434 153.192 220.066 150.979 222.287 150.389C224.505 149.8 227.018 150.91 229.359 153.516C231.649 156.065 233.518 159.761 234.622 163.92C235.728 168.082 235.94 172.221 235.218 175.572C234.48 178.998 232.851 181.21 230.63 181.802C230.24 181.905 229.841 181.956 229.436 181.956V181.955ZM223.478 150.866C223.128 150.866 222.783 150.91 222.448 150.999C220.469 151.525 219 153.568 218.313 156.75C217.609 160.007 217.817 164.038 218.895 168.101C219.975 172.168 221.796 175.772 224.024 178.251C226.2 180.671 228.49 181.717 230.468 181.188C232.447 180.661 233.914 178.62 234.6 175.438C235.301 172.181 235.092 168.149 234.012 164.081C232.932 160.017 231.112 156.415 228.889 153.937C227.083 151.927 225.199 150.867 223.48 150.867L223.478 150.866Z" fill="black"/>
<g opacity="0.3">
<path opacity="0.3" d="M234.316 163.999C236.577 172.507 234.89 180.339 230.549 181.495C226.207 182.649 220.849 176.692 218.59 168.184C216.332 159.684 218.026 151.85 222.367 150.695C226.709 149.54 232.06 155.499 234.317 163.999H234.316Z" fill="black"/>
</g>
<path d="M230.549 181.495L211.458 186.574C207.116 187.729 201.758 181.771 199.499 173.264C197.242 164.763 198.935 156.93 203.277 155.774L222.368 150.695C218.027 151.849 216.333 159.684 218.591 168.184C220.852 176.692 226.208 182.651 230.549 181.495Z" fill="white"/>
<path d="M210.344 187.035C208.44 187.035 206.393 185.903 204.461 183.754C202.168 181.203 200.297 177.507 199.193 173.346C198.089 169.187 197.878 165.051 198.603 161.699C199.344 158.272 200.974 156.06 203.195 155.47L222.287 150.39L222.449 151.003C220.47 151.529 219.001 153.572 218.314 156.754C217.61 160.011 217.818 164.042 218.897 168.105C219.977 172.173 221.797 175.776 224.025 178.255C226.198 180.673 228.484 181.718 230.462 181.193H230.469L230.632 181.803L211.54 186.884C211.15 186.987 210.751 187.038 210.347 187.038L210.344 187.035ZM220.162 151.607L203.356 156.079C201.377 156.606 199.908 158.649 199.221 161.83C198.517 165.087 198.725 169.118 199.803 173.181C200.883 177.249 202.704 180.853 204.932 183.331C207.108 185.752 209.397 186.795 211.376 186.268L228.18 181.796C226.649 181.416 225.066 180.357 223.553 178.674C221.26 176.123 219.389 172.426 218.284 168.265C217.18 164.107 216.97 159.97 217.695 156.618C218.173 154.406 219.022 152.699 220.162 151.609V151.607Z" fill="black"/>
<g opacity="0.3">
<path opacity="0.3" d="M230.549 181.492L211.456 186.574C207.408 187.651 202.475 182.536 199.995 174.934C201.703 176.288 203.493 176.871 205.131 176.434L220.069 172.458C222.726 178.592 226.975 182.44 230.549 181.491V181.492Z" fill="black"/>
</g>
<g opacity="0.6">
<path opacity="0.6" d="M222.363 150.693C219.758 151.389 218.107 154.49 217.695 158.699L202.112 162.839C200.545 163.257 199.317 164.554 198.5 166.434C198.386 160.908 200.144 156.604 203.276 155.775L222.363 150.693Z" fill="white"/>
</g>
<path d="M229.42 184.174C226.887 184.174 224.274 182.791 221.906 180.156C219.384 177.349 217.337 173.329 216.144 168.835C214.951 164.345 214.733 159.84 215.531 156.15C216.455 151.87 218.652 149.063 221.717 148.248C224.78 147.433 228.08 148.778 231.005 152.034C233.524 154.84 235.568 158.859 236.761 163.35C237.955 167.845 238.175 172.351 237.381 176.038C236.459 180.319 234.263 183.126 231.199 183.941C230.613 184.097 230.02 184.174 229.422 184.174H229.42ZM223.469 153.084C223.31 153.084 223.159 153.103 223.015 153.141C221.912 153.435 220.962 154.959 220.474 157.22C219.852 160.097 220.056 163.856 221.033 167.534C222.01 171.215 223.699 174.581 225.668 176.771C227.213 178.49 228.795 179.344 229.897 179.049C230.999 178.756 231.946 177.232 232.433 174.973C233.052 172.095 232.847 168.333 231.869 164.653C230.892 160.975 229.204 157.61 227.239 155.421C225.896 153.926 224.526 153.087 223.467 153.087L223.469 153.084Z" fill="black"/>
<path d="M210.33 189.254C207.795 189.254 205.183 187.87 202.815 185.236C200.293 182.429 198.246 178.408 197.053 173.914C195.86 169.424 195.642 164.919 196.438 161.229C197.362 156.949 199.559 154.142 202.624 153.327L221.709 148.25H221.716C223.063 147.888 224.451 148.693 224.811 150.044C225.17 151.396 224.365 152.783 223.015 153.141H223.012C221.911 153.436 220.962 154.962 220.475 157.22C219.853 160.097 220.056 163.856 221.033 167.534C222.01 171.215 223.699 174.581 225.669 176.771C227.214 178.49 228.796 179.344 229.897 179.049C231.244 178.689 232.632 179.493 232.992 180.845C233.351 182.197 232.548 183.583 231.196 183.942C231.196 183.942 231.195 183.942 231.193 183.942L212.104 189.022C211.519 189.177 210.927 189.255 210.329 189.255L210.33 189.254ZM215.803 155.059L203.925 158.22C202.822 158.514 201.872 160.038 201.384 162.299C200.762 165.176 200.966 168.936 201.943 172.613C202.92 176.294 204.609 179.66 206.578 181.85C208.123 183.57 209.704 184.422 210.807 184.128L222.684 180.967C222.423 180.711 222.164 180.441 221.907 180.156C219.385 177.349 217.338 173.329 216.145 168.835C214.951 164.345 214.734 159.84 215.531 156.15C215.612 155.775 215.702 155.413 215.803 155.061V155.059Z" fill="black"/>
<path d="M210.33 189.254C207.795 189.254 205.183 187.87 202.815 185.236C200.293 182.429 198.246 178.408 197.053 173.914C195.86 169.424 195.642 164.919 196.438 161.229C197.362 156.949 199.559 154.142 202.624 153.327L221.709 148.25H221.716C223.063 147.888 224.451 148.693 224.811 150.044C225.17 151.396 224.365 152.783 223.015 153.141H223.012C221.911 153.436 220.962 154.962 220.475 157.22C219.853 160.097 220.056 163.856 221.033 167.534C222.01 171.215 223.699 174.581 225.669 176.771C227.214 178.49 228.796 179.344 229.897 179.049C231.244 178.689 232.632 179.493 232.992 180.845C233.351 182.197 232.548 183.583 231.196 183.942C231.196 183.942 231.195 183.942 231.193 183.942L212.104 189.022C211.519 189.177 210.927 189.255 210.329 189.255L210.33 189.254ZM215.803 155.059L203.925 158.22C202.822 158.514 201.872 160.038 201.384 162.299C200.762 165.176 200.966 168.936 201.943 172.613C202.92 176.294 204.609 179.66 206.578 181.85C208.123 183.57 209.704 184.422 210.807 184.128L222.684 180.967C222.423 180.711 222.164 180.441 221.907 180.156C219.385 177.349 217.338 173.329 216.145 168.835C214.951 164.345 214.734 159.84 215.531 156.15C215.612 155.775 215.702 155.413 215.803 155.061V155.059Z" fill="black"/>
<path d="M132.572 341.644C130.932 341.644 129.291 341.335 127.746 340.717C109.692 333.486 95.4604 321.278 85.4444 304.433C84.7305 303.232 85.1235 301.678 86.3252 300.962C87.5254 300.248 89.0776 300.641 89.7929 301.844C99.2264 317.709 112.628 329.208 129.626 336.017C131.652 336.828 133.951 336.764 135.93 335.842L138.532 334.629L133.199 329.434C131.858 328.121 131.28 326.239 131.655 324.399C132.03 322.559 133.296 321.053 135.042 320.369L181.19 302.311C184.384 301.061 187.983 301.725 190.584 304.044C197.661 310.35 205.737 313.223 216.774 313.36C216.831 313.36 216.886 313.36 216.942 313.36C221.494 313.36 225.696 311.056 228.205 307.172L230.737 303.253C231.441 302.165 231.143 300.703 230.074 299.996C214.888 289.949 206.013 273.294 206.911 256.532C206.986 255.135 208.178 254.063 209.573 254.139C210.968 254.214 212.038 255.407 211.963 256.803C211.16 271.781 219.17 286.714 232.863 295.773C236.236 298.004 237.189 302.594 234.985 306.002L232.453 309.921C228.961 315.324 223.062 318.502 216.711 318.422C204.368 318.268 195.272 314.999 187.22 307.823C186.048 306.779 184.445 306.474 183.032 307.025L136.884 325.083C136.736 325.143 136.644 325.25 136.611 325.407C136.58 325.564 136.621 325.7 136.736 325.812L142.067 331.031C143.25 332.19 143.79 333.858 143.511 335.491C143.233 337.123 142.17 338.517 140.669 339.216L138.067 340.428C136.336 341.236 134.454 341.641 132.572 341.641V341.644Z" fill="black"/>
<path d="M39.0208 134.805C37.6383 134.805 36.5087 133.693 36.4918 132.305C36.1822 107.781 41.5047 87.4798 52.7632 70.2404C53.07 69.7707 53.5238 69.4155 54.0539 69.233L67.269 64.659C68.0734 64.3802 68.9612 64.5246 69.6355 65.0424C70.3099 65.5602 70.6788 66.3822 70.6195 67.2297L69.5747 82.0016C69.5182 82.7996 69.8405 83.5494 70.4583 84.0573C71.0761 84.5653 71.872 84.7365 72.6453 84.5271L129.351 69.1255C130.663 68.769 131.733 67.8508 132.286 66.6072L142.587 43.4058C142.897 42.7097 143.502 42.189 144.237 41.991L156.218 38.7426C157.209 38.4752 158.265 38.8303 158.888 39.6481L165.989 48.9348C166.459 49.5489 166.623 50.3426 166.433 51.0924C163.151 64.1228 160.062 89.1492 176.254 110.356C177.102 111.466 176.89 113.055 175.78 113.904C174.671 114.754 173.083 114.542 172.234 113.43C159.491 96.7439 155.603 74.6305 161.234 51.0486L155.901 44.075L146.721 46.5636L136.908 68.6657C135.735 71.3071 133.463 73.2567 130.675 74.0151L73.9699 89.4166C71.6302 90.0519 69.1167 89.5114 67.245 87.9721C65.3733 86.4314 64.3568 84.0673 64.5279 81.6465L65.3026 70.7002L56.5321 73.7363C46.1599 89.9528 41.2601 109.102 41.5513 132.244C41.5683 133.642 40.4515 134.789 39.0534 134.808H39.0208V134.805Z" fill="black"/>
<path d="M67.4489 78.7221C66.366 78.7221 65.3637 78.0204 65.0301 76.9282C64.6215 75.5912 65.375 74.1764 66.7109 73.7675L140.003 51.3711C141.338 50.9608 142.754 51.7149 143.161 53.0533C143.57 54.3903 142.817 55.8051 141.481 56.214L68.1882 78.6104C67.9422 78.6853 67.6934 78.7221 67.4489 78.7221Z" fill="black"/>
<path d="M139.16 334.261C138.143 334.261 137.185 333.643 136.798 332.637C136.297 331.331 136.947 329.867 138.252 329.366L193.912 307.959C195.215 307.458 196.68 308.109 197.18 309.413C197.681 310.719 197.03 312.183 195.726 312.684L140.066 334.091C139.768 334.206 139.461 334.261 139.16 334.261Z" fill="black"/>
<path d="M192.071 354C171.125 354 151.03 349.33 135.715 340.319C134.51 339.61 134.109 338.058 134.816 336.853C135.524 335.648 137.075 335.246 138.279 335.955C162.098 349.97 198.208 352.932 230.274 343.494C255.265 336.141 289.785 317.998 312.313 273.318C322.414 253.286 328.173 231.279 329.427 207.906C336.801 70.5558 276.382 26.9289 239.711 13.1473C180.896 -8.9576 106.566 15.4067 62.9708 71.075C62.1084 72.1758 60.518 72.3682 59.4196 71.5066C58.3197 70.6435 58.1275 69.0519 58.9884 67.9511C103.911 10.5907 180.663 -14.4541 241.492 8.40771C271.328 19.62 295.544 41.8551 311.522 72.7091C329.699 107.81 337.424 153.388 334.481 208.178C333.189 232.254 327.25 254.937 316.831 275.599C293.486 321.896 257.652 340.715 231.702 348.351C218.811 352.144 205.272 353.999 192.071 353.999V354Z" fill="black"/>
<path d="M222.252 292.65C221.424 292.65 220.612 292.243 220.127 291.497C219.367 290.323 219.7 288.755 220.872 287.994C279.768 249.759 282.452 167.006 255.076 108.555C237.679 71.4089 204.114 36.3741 162.09 49.437C160.755 49.8501 159.339 49.1059 158.923 47.7704C158.509 46.4348 159.254 45.0157 160.588 44.6012C180.003 38.5657 199.872 41.9159 218.048 54.2912C234.571 65.5431 248.959 83.5621 259.658 106.404C274.209 137.473 280 173.887 275.545 206.308C270.391 243.821 252.437 273.536 223.626 292.24C223.201 292.516 222.724 292.647 222.252 292.647V292.65Z" fill="black"/>
<path d="M244.731 313.831C239.602 313.831 234.474 312.861 229.418 310.91C228.114 310.408 227.465 308.942 227.967 307.637C228.47 306.333 229.935 305.682 231.238 306.187C244.077 311.143 256.972 309.062 269.563 300.003C283.967 289.64 296.982 270.633 306.207 246.481C315.405 222.405 319.883 195.784 318.82 171.523C317.5 132.691 306.913 97.1003 288.204 68.5736C271.663 43.3505 249.411 25.4815 227.157 19.5436C201.058 12.5785 177.442 22.5472 162.362 46.8861C161.626 48.0745 160.066 48.441 158.879 47.7038C157.691 46.9667 157.325 45.4062 158.062 44.2178C174.398 17.8501 200.057 7.07348 228.459 14.6512C252.244 20.9966 274.964 39.1598 292.432 65.7949C311.65 95.0984 322.523 131.59 323.874 171.325C326.157 223.414 303.598 281.754 272.514 304.115C263.54 310.57 254.132 313.833 244.726 313.833L244.731 313.831Z" fill="black"/>
<path d="M324.839 116.19C324.783 116.165 324.63 116.089 324.409 115.975C322.392 114.957 314.246 110.728 311.406 109.247C310.793 108.93 310.427 108.74 310.427 108.74L267.724 133.666L270.134 144.09C269.919 144.085 269.71 144.065 269.495 144.039C262.721 143.134 255.385 131.886 255.998 122.759L261.95 118.993L303.135 92.9211L306.057 91.0734L317.58 93.4474L317.921 93.5167C325.13 98.0936 327.135 105.828 324.839 116.189V116.19Z" fill="white"/>
<path d="M270.533 144.42L270.122 144.407C269.897 144.4 269.679 144.38 269.456 144.353C262.402 143.411 255.066 131.896 255.681 122.738L255.693 122.578L261.78 118.726L305.995 90.738L318.091 93.2493C325.162 97.7371 327.537 105.479 325.149 116.257L325.065 116.636L324.711 116.478C324.652 116.451 324.495 116.373 324.266 116.254C322.26 115.241 314.148 111.032 311.261 109.525L310.437 109.099L268.086 133.82L270.536 144.419L270.533 144.42ZM256.303 122.94C255.8 131.796 262.8 142.825 269.537 143.725C269.602 143.732 269.665 143.739 269.729 143.747L267.362 133.509L310.417 108.378L311.551 108.965C314.438 110.47 322.547 114.679 324.551 115.691C324.574 115.702 324.595 115.714 324.616 115.723C326.826 105.325 324.594 98.1544 317.8 93.8152L306.117 91.4087L256.303 122.94Z" fill="black"/>
<g opacity="0.6">
<path opacity="0.6" d="M268.775 138.217L270.135 144.092C269.92 144.086 269.711 144.066 269.496 144.041C262.721 143.135 255.386 131.888 255.999 122.761L260.402 119.976C260.18 126.654 264.05 134.325 268.775 138.217Z" fill="white"/>
</g>
<path d="M328.262 236.186L327.717 235.4L316.384 219.12L260.128 246.61L260.122 246.615C259.718 234.843 262.209 223.032 270.077 216.334L270.709 215.999L320.647 189.333L321.134 189.801L331.81 199.941L332.069 200.187C338.368 213.423 338.279 226.037 328.262 236.183V236.186Z" fill="white"/>
<path d="M259.836 247.323L259.805 246.627C259.331 232.865 262.906 222.022 269.87 216.094L270.56 215.72L320.701 188.947L321.354 189.575L332.355 200.053C339.267 214.576 337.966 226.808 328.487 236.408L328.22 236.678L316.28 219.523L260.311 246.873L259.837 247.323H259.836ZM320.593 189.722L270.224 216.616C263.548 222.308 260.055 232.784 260.421 246.115L316.488 218.718L328.302 235.69C337.32 226.353 338.5 214.475 331.808 200.38L320.592 189.723L320.593 189.722Z" fill="black"/>
<g opacity="0.6">
<path opacity="0.6" d="M321.54 190.189L278.091 213.387L277.459 213.723C269.806 220.236 267.238 231.579 267.478 243.022L260.13 246.611L260.124 246.617C259.72 234.844 262.211 223.033 270.079 216.336L270.711 216L320.649 189.334L321.136 189.803L321.54 190.189Z" fill="white"/>
</g>
<path d="M270.134 146.624C270.104 146.624 270.074 146.624 270.045 146.624C266.861 146.512 263.463 144.629 260.48 141.321C255.807 136.142 253.058 128.789 253.473 122.591C253.527 121.784 253.963 121.053 254.645 120.621L304.702 88.9383C305.257 88.5875 305.924 88.4672 306.564 88.5974L318.434 91.0421C318.733 91.1044 319.019 91.219 319.278 91.3845C327.222 96.4241 329.924 104.954 327.307 116.739C327.142 117.483 326.65 118.114 325.968 118.454C325.287 118.795 324.488 118.809 323.794 118.495C323.167 118.211 314.601 113.767 310.496 111.633L270.607 134.911L272.599 143.523C272.776 144.29 272.588 145.096 272.087 145.705C271.605 146.289 270.889 146.626 270.135 146.626L270.134 146.624ZM258.495 124.174C258.595 128.757 260.809 134.13 264.236 137.927C265.016 138.792 265.819 139.52 266.612 140.092L265.258 134.233C265.008 133.152 265.491 132.035 266.448 131.476L309.151 106.555C309.901 106.117 310.822 106.094 311.591 106.496C315.133 108.337 319.907 110.813 322.953 112.384C323.977 104.716 321.997 99.3018 316.945 95.9048L306.546 93.7628L258.496 124.175L258.495 124.174Z" fill="black"/>
<path d="M260.611 249.636C260.158 249.636 259.707 249.514 259.307 249.275C258.572 248.834 258.111 248.049 258.082 247.191C257.73 236.966 259.324 223.065 268.926 214.894C269.064 214.777 269.214 214.675 269.374 214.589L319.943 187.59C320.904 187.078 322.085 187.238 322.875 187.987L334.297 198.84C334.522 199.054 334.706 199.309 334.84 199.587C342.091 214.826 340.607 228.267 330.548 238.456C330.02 238.991 329.282 239.268 328.532 239.199C327.783 239.135 327.102 238.741 326.672 238.124L316.031 222.834L261.72 249.379C261.368 249.551 260.99 249.636 260.611 249.636ZM272.005 218.923C266.5 223.745 263.401 232.217 263.12 243.06L315.76 217.333C316.881 216.784 318.232 217.137 318.946 218.161L328.996 232.602C335.557 224.397 336.056 214.181 330.471 202.185L320.715 192.917L272.004 218.923H272.005Z" fill="black"/>
<path d="M232.321 48.9857L240.943 41.1996C241.806 40.4205 243.137 40.489 243.916 41.3524L245.97 43.6308C246.748 44.4942 246.68 45.827 245.817 46.6061L237.195 54.3922C236.332 55.1713 235.001 55.1028 234.222 54.2394L232.168 51.961C231.389 51.0976 231.458 49.7648 232.321 48.9857Z" fill="black"/>
<path d="M265.618 69.8908L256.607 77.2225C255.705 77.9564 255.568 79.2832 256.301 80.186L258.236 82.5671C258.969 83.4699 260.295 83.6068 261.197 82.8729L270.208 75.5412C271.11 74.8072 271.247 73.4804 270.514 72.5776L268.579 70.1965C267.846 69.2937 266.52 69.1569 265.618 69.8908Z" fill="black"/>
<path d="M286.307 143.053L296.979 138.469C298.047 138.01 299.285 138.505 299.743 139.574L300.953 142.394C301.411 143.463 300.917 144.702 299.849 145.161L289.177 149.745C288.109 150.204 286.871 149.709 286.412 148.64L285.203 145.82C284.744 144.751 285.239 143.512 286.307 143.053Z" fill="black"/>
<path d="M291.932 171.261L303.095 168.056C304.212 167.735 305.378 168.382 305.699 169.499L306.545 172.449C306.865 173.567 306.219 174.734 305.102 175.055L293.939 178.261C292.822 178.581 291.655 177.935 291.335 176.817L290.489 173.867C290.169 172.749 290.815 171.582 291.932 171.261Z" fill="black"/>
<path d="M125.487 297.823C124.471 297.823 123.555 297.117 123.327 296.083L120.466 283.027C120.204 281.831 120.959 280.65 122.154 280.388C123.348 280.126 124.527 280.882 124.79 282.078L127.652 295.133C127.913 296.329 127.158 297.51 125.964 297.772C125.804 297.807 125.644 297.824 125.487 297.824V297.823Z" fill="black"/>
<path d="M88.0432 126.94C87.0253 126.94 86.1093 126.234 85.8831 125.2L83.6367 114.948C83.3752 113.753 84.1301 112.571 85.3247 112.309C86.5192 112.046 87.6996 112.805 87.9612 113.999L90.2075 124.25C90.4691 125.446 89.7141 126.627 88.5196 126.889C88.3598 126.924 88.2001 126.941 88.0432 126.941V126.94Z" fill="black"/>
<path d="M160.213 192.728C159.234 192.728 158.339 192.073 158.076 191.082C157.762 189.899 158.465 188.686 159.646 188.371L171.981 185.089C173.163 184.77 174.374 185.478 174.689 186.66C175.003 187.843 174.301 189.056 173.119 189.371L160.784 192.653C160.594 192.704 160.403 192.728 160.215 192.728H160.213Z" fill="black"/>
<path d="M38.5184 225.106C37.5387 225.106 36.6439 224.451 36.3809 223.459C36.0671 222.276 36.7697 221.064 37.9515 220.749L49.7756 217.602C50.9574 217.284 52.1704 217.991 52.4842 219.174C52.798 220.357 52.0954 221.569 50.9136 221.885L39.0896 225.031C38.8987 225.082 38.7079 225.106 38.5198 225.106H38.5184Z" fill="black"/>
<g opacity="0.3">
<path opacity="0.3" d="M170.87 107.005C162.901 103.27 153.826 98.8023 153.826 98.8023C141.252 79.7817 156.881 41.1844 156.881 41.1844L163.977 50.4698C162.244 57.3443 161.257 64.5216 161.257 71.7188C161.257 83.8521 164.065 96.0619 170.87 107.005Z" fill="black"/>
</g>
<g opacity="0.3">
<path opacity="0.3" d="M317.441 92.2334L317.124 92.2207L305.159 91.6449L261.418 117.584L261.405 117.578C242.533 69.2273 204.598 34.0666 162.383 46.0797L161.339 43.782C186.934 2.82205 247.459 5.26542 285.653 60.4456C293.767 62.4263 300.022 62.6612 296.961 54.161C296.923 54.0408 296.872 53.9205 296.828 53.7932L297.214 54.5147L316.365 90.2258L317.441 92.232V92.2334Z" fill="black"/>
</g>
<g opacity="0.3">
<path opacity="0.3" d="M328.262 236.186L327.718 235.4C324.796 248.749 320.261 261.719 314.083 273.972C283.726 334.179 227.994 353.63 183.09 350.749C181.16 350.002 180.104 349.591 180.104 349.591C210.481 345.774 233.798 336.608 233.647 309.676C293.73 324.931 316.384 219.12 316.384 219.12L315.658 212.557L316.505 196.942L320.932 192.093L321.134 189.821V189.803C325.542 161.028 314.62 120.305 311.407 109.247C310.87 107.399 310.547 106.379 310.547 106.379L307.227 95.6191H300.743L303.134 92.9225L305.752 89.9727L317.213 92.467C317.339 92.7895 317.459 93.1192 317.58 93.4474L317.921 93.5167C325.131 98.0936 327.135 105.828 324.84 116.189C324.783 116.164 324.63 116.087 324.41 115.974C330.229 139.772 332.967 167.648 331.809 199.941L332.068 200.187C338.367 213.423 338.278 226.037 328.261 236.183L328.262 236.186Z" fill="black"/>
</g>
</svg>
