<svg width="33" height="33" viewBox="0 0 33 33" fill="none" xmlns="http://www.w3.org/2000/svg">
<g filter="url(#filter0_d_1278_5876)">
<path d="M16.5 25C23.4036 25 29 19.4036 29 12.5C29 5.59644 23.4036 0 16.5 0C9.59644 0 4 5.59644 4 12.5C4 19.4036 9.59644 25 16.5 25Z" fill="white"/>
<path d="M19.7272 7.98259C18.945 7.23169 17.8625 6.81812 16.6792 6.81812C14.8715 6.81812 13.7598 7.55909 13.1454 8.18066C12.3883 8.94667 11.9541 9.96377 11.9541 10.9712C11.9541 12.2362 12.4832 13.2071 13.3692 13.5683C13.4287 13.5926 13.4886 13.6049 13.5473 13.6049C13.7342 13.6049 13.8823 13.4826 13.9336 13.2864C13.9635 13.1739 14.0328 12.8962 14.0629 12.7756C14.1274 12.5376 14.0753 12.4231 13.9347 12.2573C13.6784 11.9541 13.5591 11.5956 13.5591 11.1289C13.5591 9.74284 14.5911 8.26972 16.504 8.26972C18.0218 8.26972 18.9647 9.13238 18.9647 10.521C18.9647 11.3973 18.7759 12.2088 18.4331 12.8062C18.1949 13.2213 17.7759 13.7161 17.1328 13.7161C16.8547 13.7161 16.6049 13.6018 16.4473 13.4027C16.2984 13.2144 16.2493 12.9712 16.3092 12.7177C16.3768 12.4313 16.4691 12.1326 16.5584 11.8438C16.7212 11.3163 16.8751 10.8181 16.8751 10.4206C16.8751 9.74071 16.4572 9.28389 15.8352 9.28389C15.0447 9.28389 14.4254 10.0868 14.4254 11.1117C14.4254 11.6144 14.559 11.9904 14.6194 12.1347C14.5199 12.5567 13.928 15.0651 13.8158 15.5381C13.7508 15.8142 13.3598 17.9952 14.007 18.1691C14.7342 18.3645 15.3842 16.2404 15.4504 16.0004C15.504 15.8052 15.6916 15.067 15.8066 14.6133C16.1577 14.9514 16.7229 15.18 17.2729 15.18C18.3097 15.18 19.2421 14.7135 19.8984 13.8663C20.535 13.0447 20.8855 11.8995 20.8855 10.6419C20.8855 9.65865 20.4633 8.68937 19.7272 7.98259Z" fill="black"/>
</g>
<defs>
<filter id="filter0_d_1278_5876" x="0" y="0" width="33" height="33" filterUnits="userSpaceOnUse" color-interpolation-filters="sRGB">
<feFlood flood-opacity="0" result="BackgroundImageFix"/>
<feColorMatrix in="SourceAlpha" type="matrix" values="0 0 0 0 0 0 0 0 0 0 0 0 0 0 0 0 0 0 127 0" result="hardAlpha"/>
<feOffset dy="4"/>
<feGaussianBlur stdDeviation="2"/>
<feComposite in2="hardAlpha" operator="out"/>
<feColorMatrix type="matrix" values="0 0 0 0 0 0 0 0 0 0 0 0 0 0 0 0 0 0 0.05 0"/>
<feBlend mode="normal" in2="BackgroundImageFix" result="effect1_dropShadow_1278_5876"/>
<feBlend mode="normal" in="SourceGraphic" in2="effect1_dropShadow_1278_5876" result="shape"/>
</filter>
</defs>
</svg>
